<?xml version="1.0" standalone="no"?>
<!DOCTYPE svg PUBLIC "-//W3C//DTD SVG 20010904//EN"
 "http://www.w3.org/TR/2001/REC-SVG-20010904/DTD/svg10.dtd">
<svg version="1.0" xmlns="http://www.w3.org/2000/svg"
 width="288.000000pt" height="288.000000pt" viewBox="0 0 288.000000 288.000000"
 preserveAspectRatio="xMidYMid meet">

<g transform="translate(0.000000,288.000000) scale(0.100000,-0.100000)"
fill="#000000" stroke="none">
<path d="M280 2774 c45 -59 86 -119 91 -133 14 -34 12 -174 -1 -239 -13 -56
-30 -79 -30 -38 0 21 -4 24 -27 20 -16 -3 -36 -7 -45 -10 -22 -7 -23 9 -3 26
11 9 15 9 15 1 0 -7 5 -9 11 -5 7 4 7 10 1 16 -13 13 -52 -12 -52 -34 0 -11 8
-18 20 -18 10 0 24 -9 30 -20 11 -20 10 -20 -24 -6 -42 17 -47 7 -11 -20 34
-25 32 -37 -5 -29 -23 5 -30 3 -30 -9 0 -20 -24 -21 -40 -2 -6 8 -18 12 -26 9
-8 -3 -14 0 -14 6 0 6 -5 11 -10 11 -6 0 -5 -8 2 -20 18 -28 1 -37 -22 -12
-25 26 -50 29 -50 4 0 -9 -13 -23 -29 -30 l-30 -13 0 -364 c-1 -320 1 -364 14
-359 8 4 13 10 10 14 -7 11 22 33 35 25 5 -3 10 -13 10 -22 0 -10 6 -13 16 -9
8 3 12 2 9 -4 -3 -6 0 -10 8 -10 12 0 37 59 37 89 0 15 -24 -7 -32 -29 -3 -8
-5 8 -4 35 1 45 4 50 24 51 12 1 25 -3 28 -7 9 -15 44 -10 44 6 0 16 -42 31
-59 21 -10 -7 -36 32 -28 41 3 2 26 1 51 -2 37 -6 49 -13 66 -40 25 -41 18
-63 -26 -71 -38 -7 -48 -20 -58 -76 -5 -25 -3 -38 6 -41 10 -4 8 -9 -5 -17 -9
-6 -17 -22 -17 -35 0 -13 -7 -30 -15 -38 -13 -13 -11 -16 13 -25 15 -6 48 -13
74 -17 52 -7 72 -23 38 -32 l-21 -6 25 -26 25 -26 -52 0 c-29 0 -58 4 -66 9
-11 7 -13 5 -8 -7 8 -22 5 -21 -24 3 -23 21 -23 21 -30 2 -9 -24 -29 -38 -29
-21 0 7 -8 5 -19 -7 -10 -10 -17 -22 -14 -27 2 -4 -3 -7 -12 -7 -13 0 -15 -9
-14 -45 2 -31 7 -45 17 -45 10 0 13 -8 10 -25 -4 -21 -1 -26 21 -32 25 -6 41
-19 41 -36 0 -4 -16 -15 -35 -23 -20 -8 -33 -19 -30 -23 3 -5 -1 -12 -7 -15
-7 -4 -3 -4 9 -2 13 2 23 0 23 -5 0 -5 -7 -9 -15 -9 -8 0 -15 -8 -15 -19 0
-13 9 -20 30 -24 45 -10 40 -41 -10 -61 -44 -17 -53 -36 -18 -36 l22 0 -22
-20 c-27 -25 -28 -34 -4 -28 18 5 42 -13 42 -30 0 -6 -7 -23 -15 -38 -8 -16
-15 -23 -15 -16 0 8 -6 12 -12 10 -8 -3 -14 -23 -15 -48 -1 -36 4 -47 30 -73
18 -16 26 -26 18 -22 -8 4 -17 2 -22 -6 -16 -25 -10 -28 20 -11 16 9 27 20 25
24 -3 5 0 8 6 8 6 0 9 4 6 9 -9 14 22 34 44 28 13 -3 20 0 20 9 0 8 9 24 19
35 19 21 19 21 30 1 6 -11 17 -22 26 -26 16 -6 225 94 243 117 5 6 13 27 17
46 l7 33 -30 -22 c-30 -22 -52 -21 -52 3 0 7 21 25 46 40 26 15 43 31 40 35
-4 3 -10 2 -14 -4 -10 -13 -59 -44 -72 -44 -11 0 -13 93 -4 152 5 30 12 39 37
48 23 8 33 7 39 -2 5 -9 8 -8 8 5 0 9 7 17 15 17 9 0 12 -6 9 -15 -4 -8 -1
-15 5 -15 14 0 44 67 37 83 -2 7 -5 5 -5 -4 -1 -10 -12 -19 -28 -22 -34 -7
-91 -22 -118 -32 -18 -7 -18 -6 -4 6 14 11 18 42 23 164 7 153 13 243 22 283
5 26 25 30 22 5 -1 -10 2 -46 6 -80 8 -55 11 -63 30 -63 32 0 90 119 76 155
-14 36 -13 45 5 45 8 0 15 -4 15 -9 0 -5 15 5 33 22 18 18 32 33 31 35 -1 1
-12 -2 -25 -6 -14 -6 -38 -5 -58 0 -28 8 -36 7 -43 -6 -6 -10 -22 -16 -46 -16
-25 0 -33 3 -23 9 9 6 10 14 5 22 -5 8 -9 28 -9 44 0 28 -4 31 -72 55 -39 14
-74 28 -78 31 -14 15 126 -21 193 -50 132 -56 204 -70 157 -31 -10 8 -12 17
-6 24 5 6 11 24 13 40 4 39 34 58 52 34 7 -10 15 -18 18 -18 12 0 16 85 5 98
-7 10 -8 16 0 20 6 4 13 27 16 52 2 25 8 56 12 70 5 19 4 22 -4 10 -9 -12 -11
-9 -12 15 -2 27 -2 28 -6 5 -6 -30 -23 -52 -23 -28 0 11 -7 14 -27 10 -26 -5
-27 -4 -14 12 13 15 13 19 0 27 -24 15 -41 11 -35 -9 5 -15 -1 -18 -43 -20
-61 -2 -75 19 -25 38 19 8 34 20 34 28 0 9 7 13 20 9 11 -3 20 -1 20 4 0 8
-14 12 -25 7 -2 -2 -12 7 -20 20 -9 12 -21 20 -26 17 -5 -3 -6 1 -3 9 4 11 0
16 -11 16 -9 0 -13 5 -10 10 3 6 14 10 23 10 25 0 25 35 0 57 -21 18 -21 18
-14 -9 5 -22 3 -28 -9 -28 -9 0 -14 4 -10 9 3 5 1 12 -4 16 -20 12 1 31 36 33
20 2 43 7 52 11 9 5 25 5 36 0 11 -4 16 -8 10 -9 -5 0 -2 -5 8 -11 20 -12 23
-29 3 -29 -9 0 -14 -14 -14 -47 -1 -27 2 -43 6 -38 4 6 25 10 46 10 29 0 41
-5 46 -19 6 -18 7 -18 23 5 9 13 17 29 17 35 0 15 83 130 119 165 29 28 147
119 154 119 3 0 3 -9 0 -20 -3 -12 -10 -19 -16 -17 -17 5 -57 -48 -57 -76 0
-17 -7 -28 -21 -32 -21 -7 -99 -83 -149 -145 -32 -41 -74 -120 -67 -127 3 -2
15 17 27 44 17 36 43 65 103 113 112 90 167 120 227 123 48 2 61 9 40 22 -6 4
-6 16 1 33 19 55 32 72 53 71 16 -1 17 -2 4 -6 -9 -2 -21 -17 -27 -34 -13 -37
2 -39 15 -1 10 26 11 25 10 -13 -1 -22 -7 -46 -14 -54 -7 -7 -11 -15 -9 -18
11 -10 107 -31 112 -23 11 18 95 -14 131 -51 l37 -38 -32 -32 c-47 -46 -65
-99 -35 -99 18 0 13 -21 -20 -90 -22 -44 -50 -60 -52 -30 -3 44 -5 50 -18 50
-7 0 -19 -13 -26 -30 -20 -48 -43 -32 -33 23 7 34 1 34 -44 0 -30 -23 -47 -28
-99 -29 -79 -2 -124 -12 -121 -27 1 -6 -11 -13 -28 -17 -20 -3 -26 -8 -17 -13
6 -5 12 -17 12 -27 0 -11 12 -26 28 -34 22 -12 23 -15 8 -16 -19 0 -19 0 -1
-14 18 -13 17 -14 -12 -20 -40 -9 -48 -38 -17 -61 13 -10 24 -23 24 -30 0 -27
65 -33 109 -10 31 15 55 59 65 115 6 34 8 36 41 32 19 -2 36 -9 36 -16 4 -37
-4 -128 -16 -171 -8 -27 -17 -74 -20 -103 -5 -36 -13 -57 -29 -70 -37 -29 -40
-42 -16 -67 12 -13 20 -31 18 -41 -5 -26 -58 -53 -85 -43 -17 6 -26 3 -37 -13
-9 -12 -25 -23 -38 -25 -29 -5 -31 -8 -19 -32 13 -23 0 -35 -28 -26 -11 3 -22
1 -26 -5 -4 -6 -13 -9 -21 -6 -9 4 -19 -4 -27 -21 -9 -21 -9 -27 1 -31 6 -2
12 -14 12 -28 0 -17 4 -22 15 -18 8 4 15 10 15 16 0 5 -5 6 -10 3 -6 -3 -10
-1 -10 5 0 7 8 9 19 5 11 -3 22 -2 25 3 6 10 99 14 129 6 18 -6 23 -43 8 -60
-12 -13 -21 -84 -10 -84 12 0 12 -38 -1 -53 -6 -7 -19 -24 -31 -40 -23 -30
-56 -35 -74 -11 -10 14 -14 13 -38 -15 -24 -29 -26 -30 -32 -11 -4 11 -11 18
-16 15 -5 -4 -9 0 -9 8 0 8 -7 28 -15 43 -8 16 -15 23 -15 16 0 -8 -6 -12 -12
-10 -7 3 -13 10 -13 15 0 6 -3 15 -7 19 -5 4 -8 16 -8 26 0 10 -7 18 -15 18
-8 0 -15 9 -15 20 0 12 -5 17 -13 14 -8 -3 -19 7 -28 23 -8 15 -20 34 -26 41
-7 7 -13 17 -13 22 0 12 -29 40 -42 40 -6 0 -8 -12 -5 -29 3 -15 2 -32 -2 -37
-11 -12 -34 -173 -30 -202 4 -24 4 -24 49 12 25 20 51 36 58 36 7 0 17 12 23
26 10 27 10 27 34 -22 27 -54 135 -176 135 -153 0 8 7 0 16 -17 10 -21 34 -41
71 -59 34 -18 64 -42 80 -66 21 -33 24 -44 19 -102 -6 -61 -5 -65 16 -70 13
-4 40 -4 61 -3 29 3 37 0 37 -12 1 -10 9 -31 18 -48 43 -81 51 -102 54 -144 4
-56 26 -64 49 -17 17 35 59 51 59 22 0 -25 47 35 56 71 3 16 22 46 42 66 22
23 32 42 29 52 -4 9 -3 16 2 16 13 0 19 -48 15 -132 -2 -43 0 -78 5 -78 13 0
21 26 21 68 0 28 3 33 10 22 5 -8 9 -43 7 -77 -2 -51 -4 -60 -17 -52 -39 23
-49 36 -43 59 4 15 2 21 -4 17 -6 -4 -14 -26 -17 -50 -6 -37 -45 -96 -73 -109
-4 -1 -18 -30 -29 -63 -12 -33 -25 -68 -29 -78 -6 -13 -2 -17 18 -17 14 0 29
5 32 11 4 6 13 8 21 5 7 -3 19 0 26 7 17 15 88 52 102 52 6 0 14 -9 17 -20 3
-11 6 21 7 71 0 105 8 166 27 209 7 17 18 77 24 134 6 58 14 107 17 110 3 3 5
-57 4 -134 -3 -223 -2 -245 11 -245 6 0 9 8 6 20 -3 11 -1 20 5 20 5 0 7 4 4
9 -4 5 -1 22 5 38 l11 28 16 -42 c10 -23 20 -45 25 -49 4 -4 7 -18 7 -32 0
-23 -2 -24 -45 -18 -42 7 -45 6 -45 -16 0 -16 3 -19 9 -10 5 8 17 11 34 7 22
-6 26 -14 32 -56 7 -46 36 -99 56 -99 5 0 9 18 9 39 0 49 8 71 26 71 8 0 20
11 26 25 10 23 28 34 28 18 -1 -30 -24 -101 -38 -116 -14 -16 -14 -19 -2 -27
33 -21 58 -11 71 28 6 20 27 70 45 109 19 40 43 103 55 140 11 38 22 74 25 81
6 20 22 5 29 -28 7 -31 25 -42 25 -15 0 21 16 19 41 -6 19 -19 20 -24 9 -48
-14 -29 -21 -211 -8 -211 4 0 8 -6 8 -14 0 -20 60 -32 71 -15 5 8 9 19 9 25 0
19 -38 47 -55 40 -12 -4 -15 -1 -10 13 3 10 -1 24 -10 31 -18 15 -19 32 -4 83
8 31 14 38 32 35 18 -2 24 -13 32 -55 7 -39 19 -61 44 -85 l33 -33 -6 68 c-5
49 -3 73 7 87 13 18 14 17 25 -14 10 -27 9 -40 -3 -70 -9 -21 -12 -35 -6 -32
12 8 13 -75 0 -95 -6 -10 -9 -7 -9 14 0 29 -14 36 -24 11 -10 -27 12 -56 42
-52 31 4 40 28 48 148 5 66 3 99 -10 144 -12 42 -14 62 -7 69 6 6 11 19 11 29
0 10 5 18 11 18 7 0 9 10 5 25 -6 25 -6 25 15 8 12 -10 32 -36 46 -57 24 -37
25 -45 19 -125 -5 -76 -22 -171 -42 -238 -13 -45 12 -22 40 38 20 41 33 58 43
55 20 -8 46 20 39 42 -4 13 0 18 13 19 15 1 21 -7 25 -35 21 -117 29 -142 49
-142 11 0 17 5 15 13 -3 6 -13 36 -22 64 -10 29 -22 55 -27 58 -15 10 -10 25
6 19 8 -4 15 -12 15 -20 0 -8 9 -23 20 -34 11 -11 20 -30 20 -42 0 -21 2 -20
29 10 39 42 45 40 25 -5 -9 -21 -18 -44 -21 -50 -4 -10 11 -13 56 -13 34 0 61
2 61 4 0 2 -7 17 -15 32 -9 18 -11 30 -5 32 6 2 -8 26 -31 53 -22 27 -36 49
-29 49 19 0 73 -31 103 -58 l28 -26 -1 317 c-1 296 -3 317 -19 317 -26 0 -82
30 -76 41 4 5 2 9 -3 9 -12 0 -33 164 -36 275 -2 55 2 90 12 112 15 32 40 48
29 19 -3 -8 6 -24 20 -37 23 -22 25 -23 37 -7 7 10 16 15 19 11 4 -3 7 1 7 10
0 10 -3 16 -7 16 -5 -1 -20 -1 -35 0 -29 1 -40 21 -13 21 8 0 15 5 15 11 0 6
6 9 13 6 20 -8 40 48 32 89 -5 31 -8 34 -23 23 -14 -11 -15 -11 -4 1 6 8 12
27 12 43 0 16 4 26 10 22 6 -4 10 26 10 84 0 49 -4 92 -8 95 -5 3 -24 1 -43
-3 -78 -20 -91 -22 -84 -11 4 7 -2 9 -19 4 -16 -4 -26 -2 -26 5 0 12 23 19
115 35 l60 11 3 638 2 637 -1341 0 -1340 0 81 -106z m970 -279 c-7 -9 -15 -13
-17 -11 -7 7 7 26 19 26 6 0 6 -6 -2 -15z m612 -27 c-7 -7 -12 -8 -12 -2 0 6
3 14 7 17 3 4 9 5 12 2 2 -3 -1 -11 -7 -17z m-659 3 c21 11 21 10 -2 -15 -14
-14 -27 -24 -29 -21 -3 3 -11 -3 -19 -13 -13 -15 -13 -15 -7 8 8 32 27 56 32
41 3 -8 10 -8 25 0z m-613 -110 c59 -76 58 -86 -5 -86 l-50 0 -3 73 c-2 39 1
72 5 72 4 -1 28 -27 53 -59z m580 -1 c0 -5 -12 -10 -27 -9 -25 0 -26 1 -8 9
27 12 35 12 35 0z m-60 -3 c0 -2 -10 -12 -22 -23 l-23 -19 19 23 c18 21 26 27
26 19z m-760 -89 c0 -13 -5 -30 -10 -38 -8 -13 -11 -12 -24 5 -9 11 -16 23
-16 26 0 5 33 24 48 28 1 1 2 -9 2 -21z m1215 2 c-3 -5 -12 -10 -18 -10 -7 0
-6 4 3 10 19 12 23 12 15 0z m-1391 -32 c5 -22 6 -22 20 -3 14 20 15 20 24 -5
5 -14 8 -28 5 -32 -2 -5 1 -8 6 -8 6 0 11 -5 11 -10 0 -6 -8 -5 -20 2 -14 9
-16 14 -7 20 8 5 5 8 -8 8 -24 1 -55 23 -55 39 0 20 17 12 24 -11z m-64 -2 c0
-7 -9 -16 -20 -19 -23 -6 -25 -2 -7 18 16 18 27 19 27 1z m470 -166 c0 -5 -5
-10 -11 -10 -5 0 -7 5 -4 10 3 6 8 10 11 10 2 0 4 -4 4 -10z m-30 -44 c0 -9
-13 -7 -29 3 -7 5 -10 14 -7 20 5 8 11 7 22 -3 8 -8 14 -17 14 -20z m1620
-151 c-11 -13 -10 -14 6 -9 18 6 18 6 -1 -9 -11 -8 -23 -13 -27 -11 -5 3 -8 0
-8 -5 0 -6 -4 -11 -10 -11 -17 0 -11 28 8 39 9 6 13 11 7 11 -5 1 -1 5 10 9
26 11 31 6 15 -14z m-1637 -37 c6 -4 18 -3 28 2 19 11 29 4 29 -22 0 -10 11
-24 25 -30 31 -14 27 -34 -5 -30 -26 4 -40 -12 -40 -46 0 -31 -20 -36 -65 -18
-37 16 -37 16 -32 63 3 27 6 50 6 52 1 2 10 1 20 -2 13 -3 18 -1 14 9 -2 7
-12 10 -20 7 -13 -5 -12 -1 3 22 12 19 19 23 23 14 2 -8 9 -17 14 -21z m191
16 c4 -10 1 -14 -6 -12 -15 5 -23 28 -10 28 5 0 13 -7 16 -16z m-64 -18 c0
-11 -19 -15 -25 -6 -3 5 1 10 9 10 9 0 16 -2 16 -4z m1637 -39 c13 5 32 -11
33 -29 0 -8 -56 -9 -83 -1 -17 5 -17 7 5 30 18 19 24 21 26 9 2 -9 9 -13 19
-9z m-1627 -28 c0 -16 -4 -28 -9 -25 -8 5 -3 56 5 56 2 0 4 -14 4 -31z m-535
-9 c8 -13 -5 -13 -25 0 -13 8 -13 10 2 10 9 0 20 -4 23 -10z m1925 -115 c0
-57 -4 -95 -10 -95 -11 0 -14 130 -4 168 11 40 14 24 14 -73z m259 31 c12 -9
13 -8 6 3 -5 10 -4 12 3 7 16 -10 15 -33 0 -39 -22 -7 -47 4 -41 19 3 8 0 14
-6 14 -6 0 -11 -7 -11 -15 0 -8 -7 -15 -15 -15 -8 0 -15 8 -15 18 -1 16 -1 16
-10 0 -14 -23 -3 -45 25 -52 34 -9 22 -46 -15 -46 -15 0 -33 -7 -40 -15 -13
-16 -59 -10 -72 9 -4 6 -8 37 -8 69 0 56 1 57 28 57 21 0 24 -2 12 -10 -8 -5
-10 -10 -4 -10 6 0 17 6 23 13 13 16 118 11 140 -7z m185 -104 c-22 -5 -16
-22 8 -22 12 0 18 -3 15 -7 -4 -3 1 -12 11 -19 14 -11 15 -13 2 -14 -9 0 -21
5 -27 11 -6 6 -31 11 -57 11 -41 0 -46 2 -46 22 0 28 18 46 47 46 13 0 23 5
23 11 0 6 9 1 19 -12 16 -19 17 -25 5 -27z m-194 17 c0 -16 4 -19 20 -14 16 5
20 2 20 -14 0 -15 -6 -21 -21 -21 -29 0 -49 23 -42 49 7 27 23 27 23 0z
m-1795 -59 c-6 -10 -45 -1 -45 10 0 4 11 5 25 2 14 -2 23 -8 20 -12z m15 -20
c0 -5 -7 -10 -16 -10 -8 0 -12 5 -9 10 3 6 10 10 16 10 5 0 9 -4 9 -10z m1310
-215 c-4 -5 -6 -27 -5 -47 1 -22 -3 -38 -9 -38 -28 0 -55 14 -59 29 -3 9 -5 4
-6 -11 -1 -22 2 -26 17 -21 14 5 15 3 5 -8 -10 -9 -16 -10 -24 -2 -14 14 -3
88 16 103 11 9 12 7 8 -10 -7 -25 17 -46 29 -27 4 7 8 44 8 83 0 39 3 74 8 78
9 10 21 -115 12 -129z m-1670 121 c0 -3 -4 -8 -10 -11 -5 -3 -10 -1 -10 4 0 6
5 11 10 11 6 0 10 -2 10 -4z m85 -16 c7 -11 -9 -11 -45 0 -24 8 -24 8 7 9 17
1 35 -3 38 -9z m2185 -25 c0 -5 -5 -3 -10 5 -5 8 -10 20 -10 25 0 6 5 3 10 -5
5 -8 10 -19 10 -25z m100 10 c0 -8 -2 -15 -4 -15 -2 0 -6 7 -10 15 -3 8 -1 15
4 15 6 0 10 -7 10 -15z m-1458 -160 c-2 -14 -8 -25 -13 -25 -12 0 -11 7 1 31
14 26 18 24 12 -6z m1478 0 c-7 -8 -22 -15 -34 -14 -14 0 -16 2 -6 6 8 4 21
12 29 20 18 18 28 8 11 -12z m204 -13 c2 -4 0 -14 -5 -22 -8 -13 -10 -13 -18
0 -10 15 -6 30 9 30 5 0 11 -4 14 -8z m-189 -92 c3 -5 -1 -10 -9 -10 -8 0 -18
5 -21 10 -3 6 1 10 9 10 8 0 18 -4 21 -10z m-401 -164 c48 -13 94 -30 101 -38
17 -19 51 -106 59 -151 7 -37 6 -38 -16 -32 -53 16 -68 33 -68 80 0 24 -4 46
-10 50 -5 3 -44 14 -86 25 -84 22 -117 39 -134 70 -10 18 -8 20 27 20 21 0 78
-11 127 -24z m-2008 -63 c-10 -10 -19 5 -10 18 6 11 8 11 12 0 2 -7 1 -15 -2
-18z m24 -24 c0 -11 -4 -17 -10 -14 -6 4 -17 2 -25 -5 -9 -7 -15 -8 -20 0 -10
16 3 29 25 25 11 -2 20 0 20 6 0 5 2 9 5 9 3 0 5 -9 5 -21z m-68 -77 c-7 -2
-10 -7 -8 -11 2 -3 -7 -11 -20 -18 -14 -7 -22 -7 -18 -1 4 6 0 15 -7 20 -10 7
-7 7 9 3 15 -4 24 -1 28 9 3 9 11 13 17 9 8 -5 7 -8 -1 -11z m54 -32 c8 0 14
5 14 10 0 6 5 10 12 10 7 0 6 -6 -4 -17 -8 -10 -15 -25 -15 -33 -1 -8 -4 -24
-9 -35 -7 -17 -6 -18 8 -7 14 11 18 10 27 -7 13 -24 -6 -42 -20 -20 -5 8 -9 9
-9 3 0 -7 -11 -9 -27 -6 -25 5 -25 6 -8 18 18 13 17 14 -9 14 -18 0 -26 4 -23
13 2 6 10 11 17 9 8 -2 10 3 6 13 -3 9 0 25 7 35 6 11 13 16 15 10 2 -5 10
-10 18 -10z m-96 -84 c0 -3 -4 -8 -10 -11 -5 -3 -10 -1 -10 4 0 6 5 11 10 11
6 0 10 -2 10 -4z m1436 -233 c-14 -12 -26 -27 -26 -33 0 -17 -64 -103 -68 -92
-1 5 8 36 21 68 17 43 28 58 40 56 10 -2 17 4 17 13 0 10 5 13 12 9 7 -5 9 -2
5 9 -3 9 -1 18 6 20 24 8 19 -28 -7 -50z m784 -13 c0 -5 -5 -10 -11 -10 -5 0
-7 5 -4 10 3 6 8 10 11 10 2 0 4 -4 4 -10z m-12 -82 c7 -7 12 -39 12 -75 0
-56 -2 -63 -19 -63 -26 0 -34 31 -26 96 7 56 12 63 33 42z m-51 -20 c-3 -8 -6
-5 -6 6 -1 11 2 17 5 13 3 -3 4 -12 1 -19z m-373 -43 c3 -8 1 -15 -3 -15 -5 0
-11 7 -15 15 -3 8 -1 15 3 15 5 0 11 -7 15 -15z m-54 -46 c0 -18 -4 -28 -10
-24 -5 3 -10 20 -10 36 0 18 4 28 10 24 6 -3 10 -20 10 -36z m100 -54 c0 -10
-10 -15 -27 -15 -27 1 -27 1 -9 15 25 19 36 19 36 0z"/>
<path d="M540 1760 c0 -5 5 -10 10 -10 6 0 10 5 10 10 0 6 -4 10 -10 10 -5 0
-10 -4 -10 -10z"/>
<path d="M0 2513 c0 -23 15 -39 23 -26 3 5 -1 17 -9 28 -14 18 -14 18 -14 -2z"/>
<path d="M225 2450 c-3 -5 1 -10 10 -10 9 0 13 5 10 10 -3 6 -8 10 -10 10 -2
0 -7 -4 -10 -10z"/>
<path d="M0 2441 c0 -5 5 -13 10 -16 5 -3 10 -2 10 4 0 5 -4 13 -10 16 -5 3
-10 2 -10 -4z"/>
<path d="M40 2424 c0 -7 27 -34 34 -34 13 0 5 16 -14 28 -11 7 -20 10 -20 6z"/>
<path d="M174 2388 c-3 -4 6 -8 20 -8 14 0 26 4 26 8 0 4 -9 8 -21 8 -11 0
-23 -4 -25 -8z"/>
<path d="M3 2340 c2 -24 13 -26 21 -4 8 22 8 24 -8 24 -9 0 -14 -9 -13 -20z"/>
<path d="M663 2083 c9 -2 23 -2 30 0 6 3 -1 5 -18 5 -16 0 -22 -2 -12 -5z"/>
<path d="M728 2053 c7 -3 16 -2 19 1 4 3 -2 6 -13 5 -11 0 -14 -3 -6 -6z"/>
<path d="M781 1884 c0 -11 3 -14 6 -6 3 7 2 16 -1 19 -3 4 -6 -2 -5 -13z"/>
<path d="M600 1606 c0 -2 7 -7 16 -10 8 -3 12 -2 9 4 -6 10 -25 14 -25 6z"/>
<path d="M650 1453 c-51 -71 -121 -194 -127 -225 -3 -17 3 -43 18 -73 l23 -46
24 48 c13 26 37 62 52 78 35 37 65 168 53 228 l-8 38 -35 -48z"/>
<path d="M101 1443 c-1 -6 -4 -20 -7 -30 -5 -17 -5 -17 6 0 6 10 9 23 6 30 -3
9 -5 9 -5 0z"/>
<path d="M1100 1400 c0 -13 7 -20 19 -20 25 0 38 20 20 31 -23 15 -39 10 -39
-11z"/>
<path d="M490 1318 c0 -4 4 -8 9 -8 6 0 12 4 15 8 3 5 -1 9 -9 9 -8 0 -15 -4
-15 -9z"/>
<path d="M685 1210 c-3 -5 -3 -15 1 -21 6 -11 23 6 24 24 0 10 -18 9 -25 -3z"/>
<path d="M606 1109 c-14 -51 -15 -64 -4 -72 10 -7 9 -8 -3 -4 -13 4 -18 -5
-22 -45 -4 -28 -11 -56 -18 -64 -11 -14 -22 -79 -21 -126 1 -16 -3 -28 -8 -28
-6 0 -10 -5 -10 -10 0 -6 8 -5 20 2 11 7 18 19 15 26 -3 7 -1 11 4 8 20 -13
51 55 61 136 6 45 15 101 20 123 10 42 12 130 3 106 -4 -9 -7 -10 -12 -2 -4 6
-15 -16 -25 -50z"/>
<path d="M480 1140 c0 -5 4 -10 9 -10 6 0 13 5 16 10 3 6 -1 10 -9 10 -9 0
-16 -4 -16 -10z"/>
<path d="M2770 1111 c0 -35 19 -91 31 -91 8 0 13 18 12 47 -1 7 3 10 8 7 15
-9 10 5 -13 36 -27 38 -38 38 -38 1z"/>
<path d="M470 1080 c-8 -5 -10 -10 -5 -10 6 0 17 5 25 10 8 5 11 10 5 10 -5 0
-17 -5 -25 -10z"/>
<path d="M0 1019 c0 -28 1 -29 16 -14 9 8 13 22 10 30 -10 26 -26 16 -26 -16z"/>
<path d="M2842 1011 c-10 -6 -7 -12 11 -24 24 -15 25 -15 25 9 0 25 -13 30
-36 15z"/>
<path d="M2790 996 c0 -8 4 -17 9 -20 10 -7 23 19 14 28 -11 11 -23 6 -23 -8z"/>
<path d="M498 943 c7 -3 16 -2 19 1 4 3 -2 6 -13 5 -11 0 -14 -3 -6 -6z"/>
<path d="M754 784 c-10 -40 -27 -69 -41 -70 -7 -1 -17 -2 -23 -2 -13 -3 -1
-32 14 -32 10 0 11 -30 6 -267 0 -6 -22 -21 -50 -34 -48 -22 -57 -33 -81 -107
-9 -27 -8 -27 21 -2 13 11 42 35 66 53 23 17 46 43 49 57 7 24 8 24 15 5 21
-49 71 -248 66 -261 -3 -7 0 -38 7 -69 11 -53 12 -55 44 -55 38 0 37 -2 19 47
-16 42 -31 126 -44 248 -5 44 -21 118 -36 165 -32 103 -43 216 -27 289 12 55
8 85 -5 35z"/>
<path d="M2808 793 c6 -2 18 -2 25 0 6 3 1 5 -13 5 -14 0 -19 -2 -12 -5z"/>
<path d="M170 589 c0 -14 20 -20 40 -14 30 9 24 21 -10 21 -16 0 -30 -3 -30
-7z"/>
<path d="M515 550 c-3 -5 3 -10 15 -10 12 0 18 5 15 10 -3 6 -10 10 -15 10 -5
0 -12 -4 -15 -10z"/>
<path d="M1225 440 c-3 -5 -1 -10 4 -10 6 0 11 5 11 10 0 6 -2 10 -4 10 -3 0
-8 -4 -11 -10z"/>
<path d="M345 420 c-10 -11 -25 -22 -34 -25 -9 -2 -26 -32 -39 -65 -22 -55
-22 -61 -8 -82 16 -22 16 -22 16 14 0 25 5 38 16 40 12 2 80 138 70 138 -2 0
-11 -9 -21 -20z"/>
<path d="M1016 375 c-9 -25 14 -136 37 -176 17 -30 26 -37 41 -33 28 9 66 57
55 70 -5 6 -6 13 -3 17 3 3 9 22 14 42 8 35 7 37 -16 32 -13 -2 -24 0 -24 4 0
5 -9 9 -20 9 -10 0 -23 6 -27 14 -4 7 -18 18 -30 24 -17 9 -22 9 -27 -3z"/>
<path d="M530 290 c-6 -11 -17 -20 -24 -20 -7 0 -16 -13 -19 -28 -3 -16 -16
-33 -29 -40 l-23 -11 22 0 c31 -1 72 19 77 38 11 39 17 81 12 81 -3 0 -10 -9
-16 -20z"/>
<path d="M154 279 c-3 -6 -2 -15 3 -20 5 -5 9 -1 10 11 2 22 -2 25 -13 9z"/>
<path d="M175 178 c-4 -10 -5 -23 -2 -30 2 -7 0 -21 -5 -30 -6 -13 -5 -18 6
-18 7 0 16 -7 20 -15 6 -18 47 -20 64 -3 15 15 -16 68 -40 68 -10 0 -23 10
-27 23 -8 19 -10 20 -16 5z"/>
<path d="M350 171 c0 -6 -6 -11 -14 -9 -8 2 -22 -6 -31 -17 -9 -11 -13 -14 -9
-6 5 9 3 12 -4 7 -14 -8 -16 -46 -3 -46 5 0 21 7 37 14 15 8 31 13 36 10 4 -3
8 3 8 13 0 15 2 16 10 3 5 -8 10 -10 10 -4 0 6 -9 19 -20 29 -12 11 -20 13
-20 6z"/>
<path d="M1398 119 c-10 -10 -18 -27 -18 -36 0 -12 6 -8 19 13 11 18 25 34 33
37 10 4 9 5 -2 5 -8 0 -23 -8 -32 -19z"/>
<path d="M480 115 c-7 -9 -10 -18 -7 -21 3 -3 10 4 17 15 13 25 8 27 -10 6z"/>
<path d="M402 80 c-11 -18 -10 -25 8 -50 13 -19 30 -30 45 -30 26 0 41 26 24
46 -6 7 -8 18 -5 23 4 6 -3 8 -15 6 -12 -3 -27 2 -33 10 -9 13 -13 12 -24 -5z"/>
<path d="M1332 61 c-18 -22 -32 -45 -32 -50 0 -15 37 -14 46 1 7 11 24 88 19
88 -1 0 -16 -18 -33 -39z"/>
<path d="M268 73 c0 -10 -2 -23 -2 -30 -1 -6 -5 -15 -9 -19 -14 -14 -7 -26 8
-14 11 9 15 9 15 1 0 -7 5 -9 10 -6 6 4 8 16 4 27 -4 15 -3 18 6 13 7 -4 4 4
-5 19 -20 31 -24 32 -27 9z"/>
<path d="M680 80 c-8 -5 -12 -11 -10 -14 3 -2 14 2 24 10 22 15 10 19 -14 4z"/>
<path d="M2140 39 c0 -7 -8 -18 -17 -25 -16 -12 -15 -13 10 -14 22 0 27 4 27
25 0 14 -4 25 -10 25 -5 0 -10 -5 -10 -11z"/>
<path d="M330 10 c0 -5 7 -10 16 -10 8 0 12 5 9 10 -3 6 -10 10 -16 10 -5 0
-9 -4 -9 -10z"/>
</g>
</svg>
